<svg id="SvgjsSvg1006" width="1399.000015258789" height="720.0000152587891" xmlns="http://www.w3.org/2000/svg" version="1.1" xmlns:xlink="http://www.w3.org/1999/xlink" xmlns:svgjs="http://svgjs.com/svgjs"><defs id="SvgjsDefs1007"><marker id="SvgjsMarker1051" markerWidth="16" markerHeight="12" refX="16" refY="6" viewBox="0 0 16 12" orient="auto" markerUnits="userSpaceOnUse" stroke-dasharray="0,0"><path id="SvgjsPath1052" d="M0,2 L14,6 L0,11 L0,2" fill="#323232" stroke="#323232" stroke-width="2"></path></marker><marker id="SvgjsMarker1059" markerWidth="16" markerHeight="12" refX="16" refY="6" viewBox="0 0 16 12" orient="auto" markerUnits="userSpaceOnUse" stroke-dasharray="0,0"><path id="SvgjsPath1060" d="M0,2 L14,6 L0,11 L0,2" fill="#323232" stroke="#323232" stroke-width="2"></path></marker><marker id="SvgjsMarker1063" markerWidth="16" markerHeight="12" refX="16" refY="6" viewBox="0 0 16 12" orient="auto" markerUnits="userSpaceOnUse" stroke-dasharray="0,0"><path id="SvgjsPath1064" d="M0,2 L14,6 L0,11 L0,2" fill="#323232" stroke="#323232" stroke-width="2"></path></marker><marker id="SvgjsMarker1115" markerWidth="16" markerHeight="12" refX="16" refY="6" viewBox="0 0 16 12" orient="auto" markerUnits="userSpaceOnUse" stroke-dasharray="0,0"><path id="SvgjsPath1116" d="M0,2 L14,6 L0,11 L0,2" fill="#323232" stroke="#323232" stroke-width="2"></path></marker><marker id="SvgjsMarker1119" markerWidth="16" markerHeight="12" refX="16" refY="6" viewBox="0 0 16 12" orient="auto" markerUnits="userSpaceOnUse" stroke-dasharray="0,0"><path id="SvgjsPath1120" d="M0,2 L14,6 L0,11 L0,2" fill="#323232" stroke="#323232" stroke-width="2"></path></marker><marker id="SvgjsMarker1159" markerWidth="16" markerHeight="12" refX="16" refY="6" viewBox="0 0 16 12" orient="auto" markerUnits="userSpaceOnUse" stroke-dasharray="0,0"><path id="SvgjsPath1160" d="M0,2 L14,6 L0,11 L0,2" fill="#323232" stroke="#323232" stroke-width="2"></path></marker><marker id="SvgjsMarker1163" markerWidth="16" markerHeight="12" refX="16" refY="6" viewBox="0 0 16 12" orient="auto" markerUnits="userSpaceOnUse" stroke-dasharray="0,0"><path id="SvgjsPath1164" d="M0,2 L14,6 L0,11 L0,2" fill="#323232" stroke="#323232" stroke-width="2"></path></marker><marker id="SvgjsMarker1195" markerWidth="16" markerHeight="12" refX="16" refY="6" viewBox="0 0 16 12" orient="auto" markerUnits="userSpaceOnUse" stroke-dasharray="0,0"><path id="SvgjsPath1196" d="M0,2 L14,6 L0,11 L0,2" fill="#323232" stroke="#323232" stroke-width="2"></path></marker><marker id="SvgjsMarker1199" markerWidth="16" markerHeight="12" refX="16" refY="6" viewBox="0 0 16 12" orient="auto" markerUnits="userSpaceOnUse" stroke-dasharray="0,0"><path id="SvgjsPath1200" d="M0,2 L14,6 L0,11 L0,2" fill="#323232" stroke="#323232" stroke-width="2"></path></marker><marker id="SvgjsMarker1203" markerWidth="16" markerHeight="12" refX="16" refY="6" viewBox="0 0 16 12" orient="auto" markerUnits="userSpaceOnUse" stroke-dasharray="0,0"><path id="SvgjsPath1204" d="M0,2 L14,6 L0,11 L0,2" fill="#323232" stroke="#323232" stroke-width="2"></path></marker><marker id="SvgjsMarker1207" markerWidth="16" markerHeight="12" refX="16" refY="6" viewBox="0 0 16 12" orient="auto" markerUnits="userSpaceOnUse" stroke-dasharray="0,0"><path id="SvgjsPath1208" d="M0,2 L14,6 L0,11 L0,2" fill="#323232" stroke="#323232" stroke-width="2"></path></marker></defs><g id="SvgjsG1008" transform="translate(222,24.99999237060547)"><path id="SvgjsPath1009" d="M 0 0L 1008 0L 1008 58L 0 58Z" stroke="none" fill="none"></path><g id="SvgjsG1010"><text id="SvgjsText1011" font-family="微软雅黑" text-anchor="middle" font-size="40px" width="1008px" fill="#323232" font-weight="700" align="middle" anchor="middle" family="微软雅黑" size="40px" weight="700" font-style="" opacity="1" y="-4" transform="rotate(0)"><tspan id="SvgjsTspan1012" dy="50" x="504"><tspan id="SvgjsTspan1013" style="text-decoration:;">Phantom SQL Online Judge System Architecture</tspan></tspan></text></g></g><g id="SvgjsG1014" transform="translate(25,154.99999237060547)"><path id="SvgjsPath1015" d="M 23.333333333333332 12.5C 23.333333333333332 -4.166666666666666 46.666666666666664 -4.166666666666666 46.666666666666664 12.5C 46.666666666666664 29.166666666666668 23.333333333333332 29.166666666666668 23.333333333333332 12.5M 35 25L 35 75M 35 75L 5.833333333333333 100M 35 75L 64.16666666666666 100M 0 50L 70 50" stroke="rgba(50,50,50,1)" stroke-width="2" fill-opacity="1" fill="#ffffff"></path><path id="SvgjsPath1016" d="M 0 0L 70 0L 70 100L 0 100Z" stroke="none" fill="none"></path><g id="SvgjsG1017"><text id="SvgjsText1018" font-family="微软雅黑" text-anchor="middle" font-size="13px" width="110px" fill="#323232" font-weight="400" align="middle" anchor="middle" family="微软雅黑" size="13px" weight="400" font-style="" opacity="1" y="105.05" transform="rotate(0)"><tspan id="SvgjsTspan1019" dy="16" x="35"><tspan id="SvgjsTspan1020" style="text-decoration:;">Student</tspan></tspan></text></g></g><g id="SvgjsG1021" transform="translate(25,339.49999237060547)"><path id="SvgjsPath1022" d="M 23.333333333333332 12.5C 23.333333333333332 -4.166666666666666 46.666666666666664 -4.166666666666666 46.666666666666664 12.5C 46.666666666666664 29.166666666666668 23.333333333333332 29.166666666666668 23.333333333333332 12.5M 35 25L 35 75M 35 75L 5.833333333333333 100M 35 75L 64.16666666666666 100M 0 50L 70 50" stroke="rgba(50,50,50,1)" stroke-width="2" fill-opacity="1" fill="#ffffff"></path><path id="SvgjsPath1023" d="M 0 0L 70 0L 70 100L 0 100Z" stroke="none" fill="none"></path><g id="SvgjsG1024"><text id="SvgjsText1025" font-family="微软雅黑" text-anchor="middle" font-size="13px" width="110px" fill="#323232" font-weight="400" align="middle" anchor="middle" family="微软雅黑" size="13px" weight="400" font-style="" opacity="1" y="105.05" transform="rotate(0)"><tspan id="SvgjsTspan1026" dy="16" x="35"><tspan id="SvgjsTspan1027" style="text-decoration:;">Student Assistant</tspan></tspan></text></g></g><g id="SvgjsG1028" transform="translate(166,107.99999237060547)"><path id="SvgjsPath1029" d="M 0 0L 248 0L 248 517L 0 517Z" stroke-dasharray="10,6" stroke="rgba(50,50,50,1)" stroke-width="2" fill-opacity="1" fill="#ffffff"></path><g id="SvgjsG1030"><text id="SvgjsText1031" font-family="微软雅黑" text-anchor="middle" font-size="13px" width="228px" fill="#323232" font-weight="400" align="middle" anchor="middle" family="微软雅黑" size="13px" weight="400" font-style="" opacity="1" y="248.55" transform="rotate(0)"></text></g></g><g id="SvgjsG1032" transform="translate(25,524.9999923706055)"><path id="SvgjsPath1033" d="M 23.333333333333332 12.5C 23.333333333333332 -4.166666666666666 46.666666666666664 -4.166666666666666 46.666666666666664 12.5C 46.666666666666664 29.166666666666668 23.333333333333332 29.166666666666668 23.333333333333332 12.5M 35 25L 35 75M 35 75L 5.833333333333333 100M 35 75L 64.16666666666666 100M 0 50L 70 50" stroke="rgba(50,50,50,1)" stroke-width="2" fill-opacity="1" fill="#ffffff"></path><path id="SvgjsPath1034" d="M 0 0L 70 0L 70 100L 0 100Z" stroke="none" fill="none"></path><g id="SvgjsG1035"><text id="SvgjsText1036" font-family="微软雅黑" text-anchor="middle" font-size="13px" width="110px" fill="#323232" font-weight="400" align="middle" anchor="middle" family="微软雅黑" size="13px" weight="400" font-style="" opacity="1" y="105.05" transform="rotate(0)"><tspan id="SvgjsTspan1037" dy="16" x="35"><tspan id="SvgjsTspan1038" style="text-decoration:;">Teacher</tspan></tspan></text></g></g><g id="SvgjsG1039" transform="translate(199,202.99999237060547)"><path id="SvgjsPath1040" d="M 0 4Q 0 0 4 0L 178 0Q 182 0 182 4L 182 369Q 182 373 178 373L 4 373Q 0 373 0 369Z" stroke="rgba(50,50,50,1)" stroke-width="2" fill-opacity="1" fill="#ffffff"></path><g id="SvgjsG1041"><text id="SvgjsText1042" font-family="微软雅黑" text-anchor="middle" font-size="13px" width="162px" fill="#323232" font-weight="400" align="middle" anchor="middle" family="微软雅黑" size="13px" weight="400" font-style="" opacity="1" y="176.55" transform="rotate(0)"></text></g></g><g id="SvgjsG1043" transform="translate(230,159.99999237060547)"><path id="SvgjsPath1044" d="M 0 0L 120 0L 120 40L 0 40Z" stroke="none" fill="none"></path><g id="SvgjsG1045"><text id="SvgjsText1046" font-family="微软雅黑" text-anchor="middle" font-size="18px" width="120px" fill="#323232" font-weight="700" align="middle" anchor="middle" family="微软雅黑" size="18px" weight="700" font-style="" opacity="1" y="6.300000000000001" transform="rotate(0)"><tspan id="SvgjsTspan1047" dy="22" x="60"><tspan id="SvgjsTspan1048" style="text-decoration:;">Web UI</tspan></tspan></text></g></g><g id="SvgjsG1049"><path id="SvgjsPath1050" d="M95 204.99999237060547L147 204.99999237060547L147 389.49999237060547L199 389.49999237060547" stroke="#323232" stroke-width="2" fill="none" marker-end="url(#SvgjsMarker1051)"></path></g><g id="SvgjsG1053" transform="translate(505,105.49999237060547)"><path id="SvgjsPath1054" d="M 0 0L 220 0L 220 519.5L 0 519.5Z" stroke-dasharray="10,6" stroke="rgba(50,50,50,1)" stroke-width="2" fill-opacity="1" fill="#ffffff"></path><g id="SvgjsG1055"><text id="SvgjsText1056" font-family="微软雅黑" text-anchor="middle" font-size="13px" width="200px" fill="#323232" font-weight="400" align="middle" anchor="middle" family="微软雅黑" size="13px" weight="400" font-style="" opacity="1" y="249.8" transform="rotate(0)"></text></g></g><g id="SvgjsG1057"><path id="SvgjsPath1058" d="M95 389.49999237060547L147 389.49999237060547L147 389.49999237060547L199 389.49999237060547" stroke="#323232" stroke-width="2" fill="none" marker-end="url(#SvgjsMarker1059)"></path></g><g id="SvgjsG1061"><path id="SvgjsPath1062" d="M95 574.9999923706055L147 574.9999923706055L147 389.49999237060547L199 389.49999237060547" stroke="#323232" stroke-width="2" fill="none" marker-end="url(#SvgjsMarker1063)"></path></g><g id="SvgjsG1065" transform="translate(210,218.99999237060547)"><path id="SvgjsPath1066" d="M 0 0L 160 0L 160 90L 0 90Z" stroke="none" fill="none"></path><g id="SvgjsG1067"><text id="SvgjsText1068" font-family="微软雅黑" text-anchor="middle" font-size="14px" width="160px" fill="#323232" font-weight="400" align="middle" anchor="middle" family="微软雅黑" size="14px" weight="400" font-style="" opacity="1" y="16.4" transform="rotate(0)"><tspan id="SvgjsTspan1069" dy="17" x="80"><tspan id="SvgjsTspan1070" style="text-decoration:;">Vue.js</tspan></tspan><tspan id="SvgjsTspan1071" dy="17" x="80"><tspan id="SvgjsTspan1072" style="text-decoration:;">Vuetify</tspan></tspan><tspan id="SvgjsTspan1073" dy="17" x="80"><tspan id="SvgjsTspan1074" style="text-decoration:;">...</tspan></tspan></text></g></g><g id="SvgjsG1075" transform="translate(804,105.49999237060547)"><path id="SvgjsPath1076" d="M 0 0L 569 0L 569 519.5L 0 519.5Z" stroke-dasharray="10,6" stroke="rgba(50,50,50,1)" stroke-width="2" fill-opacity="1" fill="#ffffff"></path><g id="SvgjsG1077"><text id="SvgjsText1078" font-family="微软雅黑" text-anchor="middle" font-size="13px" width="549px" fill="#323232" font-weight="400" align="middle" anchor="middle" family="微软雅黑" size="13px" weight="400" font-style="" opacity="1" y="249.8" transform="rotate(0)"></text></g></g><g id="SvgjsG1079" transform="translate(540,199.99999237060547)"><path id="SvgjsPath1080" d="M 0 4Q 0 0 4 0L 146 0Q 150 0 150 4L 150 375Q 150 379 146 379L 4 379Q 0 379 0 375Z" stroke="rgba(50,50,50,1)" stroke-width="2" fill-opacity="1" fill="#ffffff"></path><g id="SvgjsG1081"><text id="SvgjsText1082" font-family="微软雅黑" text-anchor="middle" font-size="13px" width="130px" fill="#323232" font-weight="400" align="middle" anchor="middle" family="微软雅黑" size="13px" weight="400" font-style="" opacity="1" y="179.55" transform="rotate(0)"></text></g></g><g id="SvgjsG1083" transform="translate(547.5,154.99999237060547)"><path id="SvgjsPath1084" d="M 0 0L 135 0L 135 40L 0 40Z" stroke="none" fill="none"></path><g id="SvgjsG1085"><text id="SvgjsText1086" font-family="微软雅黑" text-anchor="middle" font-size="18px" width="135px" fill="#323232" font-weight="700" align="middle" anchor="middle" family="微软雅黑" size="18px" weight="700" font-style="" opacity="1" y="6.300000000000001" transform="rotate(0)"><tspan id="SvgjsTspan1087" dy="22" x="67.5"><tspan id="SvgjsTspan1088" style="text-decoration:;">Control Layer</tspan></tspan></text></g></g><g id="SvgjsG1089" transform="translate(555,234.99999237060547)"><path id="SvgjsPath1090" d="M 0 0L 120 0L 120 82L 0 82Z" stroke="none" fill="none"></path><g id="SvgjsG1091"><text id="SvgjsText1092" font-family="微软雅黑" text-anchor="middle" font-size="14px" width="120px" fill="#323232" font-weight="400" align="middle" anchor="middle" family="微软雅黑" size="14px" weight="400" font-style="" opacity="1" y="21.4" transform="rotate(0)"><tspan id="SvgjsTspan1093" dy="17" x="60"><tspan id="SvgjsTspan1094" style="text-decoration:;">User</tspan></tspan><tspan id="SvgjsTspan1095" dy="17" x="60"><tspan id="SvgjsTspan1096" style="text-decoration:;">Controller</tspan></tspan></text></g></g><g id="SvgjsG1097" transform="translate(555,359.99999237060547)"><path id="SvgjsPath1098" d="M 0 0L 120 0L 120 82L 0 82Z" stroke="none" fill="none"></path><g id="SvgjsG1099"><text id="SvgjsText1100" font-family="微软雅黑" text-anchor="middle" font-size="14px" width="120px" fill="#323232" font-weight="400" align="middle" anchor="middle" family="微软雅黑" size="14px" weight="400" font-style="" opacity="1" y="21.4" transform="rotate(0)"><tspan id="SvgjsTspan1101" dy="17" x="60"><tspan id="SvgjsTspan1102" style="text-decoration:;">Assignment</tspan></tspan><tspan id="SvgjsTspan1103" dy="17" x="60"><tspan id="SvgjsTspan1104" style="text-decoration:;">Controller</tspan></tspan></text></g></g><g id="SvgjsG1105" transform="translate(555,479.99999237060547)"><path id="SvgjsPath1106" d="M 0 0L 120 0L 120 82L 0 82Z" stroke="none" fill="none"></path><g id="SvgjsG1107"><text id="SvgjsText1108" font-family="微软雅黑" text-anchor="middle" font-size="14px" width="120px" fill="#323232" font-weight="400" align="middle" anchor="middle" family="微软雅黑" size="14px" weight="400" font-style="" opacity="1" y="21.4" transform="rotate(0)"><tspan id="SvgjsTspan1109" dy="17" x="60"><tspan id="SvgjsTspan1110" style="text-decoration:;">Sandbox</tspan></tspan><tspan id="SvgjsTspan1111" dy="17" x="60"><tspan id="SvgjsTspan1112" style="text-decoration:;">Controller</tspan></tspan></text></g></g><g id="SvgjsG1113"><path id="SvgjsPath1114" d="M540 267.77411001766427L460.1678832116788 267.77411001766427L460.1678832116788 267.98567256153626L380.33576642335765 267.98567256153626" stroke-dasharray="3,3" stroke="#323232" stroke-width="2" fill="none" marker-end="url(#SvgjsMarker1115)"></path></g><g id="SvgjsG1117"><path id="SvgjsPath1118" d="M381 389.49999237060547L460.5 389.49999237060547L460.5 389.49999237060547L540 389.49999237060547" stroke="#323232" stroke-width="2" fill="none" marker-end="url(#SvgjsMarker1119)"></path></g><g id="SvgjsG1121" transform="translate(844,199.99999237060547)"><path id="SvgjsPath1122" d="M 0 4Q 0 0 4 0L 198 0Q 202 0 202 4L 202 375Q 202 379 198 379L 4 379Q 0 379 0 375Z" stroke="rgba(50,50,50,1)" stroke-width="2" fill-opacity="1" fill="#ffffff"></path><g id="SvgjsG1123"><text id="SvgjsText1124" font-family="微软雅黑" text-anchor="middle" font-size="13px" width="182px" fill="#323232" font-weight="400" align="middle" anchor="middle" family="微软雅黑" size="13px" weight="400" font-style="" opacity="1" y="179.55" transform="rotate(0)"></text></g></g><g id="SvgjsG1125" transform="translate(879,154.99999237060547)"><path id="SvgjsPath1126" d="M 0 0L 130 0L 130 40L 0 40Z" stroke="none" fill="none"></path><g id="SvgjsG1127"><text id="SvgjsText1128" font-family="微软雅黑" text-anchor="middle" font-size="18px" width="130px" fill="#323232" font-weight="700" align="middle" anchor="middle" family="微软雅黑" size="18px" weight="700" font-style="" opacity="1" y="6.300000000000001" transform="rotate(0)"><tspan id="SvgjsTspan1129" dy="22" x="65"><tspan id="SvgjsTspan1130" style="text-decoration:;">Service Layer</tspan></tspan></text></g></g><g id="SvgjsG1131" transform="translate(860.5,242.99999237060547)"><path id="SvgjsPath1132" d="M 0 0L 169 0L 169 49L 0 49Z" stroke="none" fill="none"></path><g id="SvgjsG1133"><text id="SvgjsText1134" font-family="微软雅黑" text-anchor="middle" font-size="14px" width="169px" fill="#323232" font-weight="400" align="middle" anchor="middle" family="微软雅黑" size="14px" weight="400" font-style="" opacity="1" y="13.4" transform="rotate(0)"><tspan id="SvgjsTspan1135" dy="17" x="84.5"><tspan id="SvgjsTspan1136" style="text-decoration:;">Sandbox Judge Host</tspan></tspan></text></g></g><g id="SvgjsG1137" transform="translate(860.5,321.99999237060547)"><path id="SvgjsPath1138" d="M 0 0L 169 0L 169 49L 0 49Z" stroke="none" fill="none"></path><g id="SvgjsG1139"><text id="SvgjsText1140" font-family="微软雅黑" text-anchor="middle" font-size="14px" width="169px" fill="#323232" font-weight="400" align="middle" anchor="middle" family="微软雅黑" size="14px" weight="400" font-style="" opacity="1" y="13.4" transform="rotate(0)"><tspan id="SvgjsTspan1141" dy="17" x="84.5"><tspan id="SvgjsTspan1142" style="text-decoration:;">User Info Management</tspan></tspan></text></g></g><g id="SvgjsG1143" transform="translate(860.5,403.99999237060547)"><path id="SvgjsPath1144" d="M 0 0L 169 0L 169 49L 0 49Z" stroke="none" fill="none"></path><g id="SvgjsG1145"><text id="SvgjsText1146" font-family="微软雅黑" text-anchor="middle" font-size="14px" width="169px" fill="#323232" font-weight="400" align="middle" anchor="middle" family="微软雅黑" size="14px" weight="400" font-style="" opacity="1" y="4.9" transform="rotate(0)"><tspan id="SvgjsTspan1147" dy="17" x="84.5"><tspan id="SvgjsTspan1148" style="text-decoration:;">Assignment </tspan></tspan><tspan id="SvgjsTspan1149" dy="17" x="84.5"><tspan id="SvgjsTspan1150" style="text-decoration:;">Management</tspan></tspan></text></g></g><g id="SvgjsG1151" transform="translate(860.5,494.99999237060547)"><path id="SvgjsPath1152" d="M 0 0L 169 0L 169 49L 0 49Z" stroke="none" fill="none"></path><g id="SvgjsG1153"><text id="SvgjsText1154" font-family="微软雅黑" text-anchor="middle" font-size="14px" width="169px" fill="#323232" font-weight="400" align="middle" anchor="middle" family="微软雅黑" size="14px" weight="400" font-style="" opacity="1" y="13.4" transform="rotate(0)"><tspan id="SvgjsTspan1155" dy="17" x="84.5"><tspan id="SvgjsTspan1156" style="text-decoration:;">Problem Statistics</tspan></tspan></text></g></g><g id="SvgjsG1157"><path id="SvgjsPath1158" d="M690 389.49999237060547L767 389.49999237060547L767 389.49999237060547L844 389.49999237060547" stroke="#323232" stroke-width="2" fill="none" marker-end="url(#SvgjsMarker1159)"></path></g><g id="SvgjsG1161"><path id="SvgjsPath1162" d="M844 266.88234531178193L767 266.88234531178193L767 266.88234531178193L690 266.88234531178193" stroke-dasharray="3,3" stroke="#323232" stroke-width="2" fill="none" marker-end="url(#SvgjsMarker1163)"></path></g><g id="SvgjsG1165" transform="translate(1124,199.99999237060547)"><path id="SvgjsPath1166" d="M 0 4Q 0 0 4 0L 209 0Q 213 0 213 4L 213 375Q 213 379 209 379L 4 379Q 0 379 0 375Z" stroke="rgba(50,50,50,1)" stroke-width="2" fill-opacity="1" fill="#ffffff"></path><g id="SvgjsG1167"><text id="SvgjsText1168" font-family="微软雅黑" text-anchor="middle" font-size="13px" width="193px" fill="#323232" font-weight="400" align="middle" anchor="middle" family="微软雅黑" size="13px" weight="400" font-style="" opacity="1" y="179.55" transform="rotate(0)"></text></g></g><g id="SvgjsG1169" transform="translate(1129,154.99999237060547)"><path id="SvgjsPath1170" d="M 0 0L 212 0L 212 40L 0 40Z" stroke="none" fill="none"></path><g id="SvgjsG1171"><text id="SvgjsText1172" font-family="微软雅黑" text-anchor="middle" font-size="18px" width="212px" fill="#323232" font-weight="700" align="middle" anchor="middle" family="微软雅黑" size="18px" weight="700" font-style="" opacity="1" y="6.300000000000001" transform="rotate(0)"><tspan id="SvgjsTspan1173" dy="22" x="106"><tspan id="SvgjsTspan1174" style="text-decoration:;">Data Persistence Layer</tspan></tspan></text></g></g><g id="SvgjsG1175" transform="translate(1149.5,242.99999237060547)"><path id="SvgjsPath1176" d="M 0 0L 169 0L 169 49L 0 49Z" stroke="none" fill="none"></path><g id="SvgjsG1177"><text id="SvgjsText1178" font-family="微软雅黑" text-anchor="middle" font-size="14px" width="169px" fill="#323232" font-weight="400" align="middle" anchor="middle" family="微软雅黑" size="14px" weight="400" font-style="" opacity="1" y="13.4" transform="rotate(0)"><tspan id="SvgjsTspan1179" dy="17" x="84.5"><tspan id="SvgjsTspan1180" style="text-decoration:;">MyBatis-Plus</tspan></tspan></text></g></g><g id="SvgjsG1181" transform="translate(1149.5,364.99999237060547)"><path id="SvgjsPath1182" d="M 0 0L 169 0L 169 49L 0 49Z" stroke="none" fill="none"></path><g id="SvgjsG1183"><text id="SvgjsText1184" font-family="微软雅黑" text-anchor="middle" font-size="14px" width="169px" fill="#323232" font-weight="400" align="middle" anchor="middle" family="微软雅黑" size="14px" weight="400" font-style="" opacity="1" y="13.4" transform="rotate(0)"><tspan id="SvgjsTspan1185" dy="17" x="84.5"><tspan id="SvgjsTspan1186" style="text-decoration:;">Kafka</tspan></tspan></text></g></g><g id="SvgjsG1187" transform="translate(1149.5,479.99999237060547)"><path id="SvgjsPath1188" d="M 0 0L 169 0L 169 49L 0 49Z" stroke="none" fill="none"></path><g id="SvgjsG1189"><text id="SvgjsText1190" font-family="微软雅黑" text-anchor="middle" font-size="14px" width="169px" fill="#323232" font-weight="400" align="middle" anchor="middle" family="微软雅黑" size="14px" weight="400" font-style="" opacity="1" y="13.4" transform="rotate(0)"><tspan id="SvgjsTspan1191" dy="17" x="84.5"><tspan id="SvgjsTspan1192" style="text-decoration:;">PostgreSQL+NoSQL</tspan></tspan></text></g></g><g id="SvgjsG1193"><path id="SvgjsPath1194" d="M1234 291.99999237060547L1234 328.49999237060547L1234 328.49999237060547L1234 364.99999237060547" stroke="#323232" stroke-width="2" fill="none" marker-end="url(#SvgjsMarker1195)"></path></g><g id="SvgjsG1197"><path id="SvgjsPath1198" d="M1234 413.99999237060547L1234 446.99999237060547L1234 446.99999237060547L1234 479.99999237060547" stroke="#323232" stroke-width="2" fill="none" marker-end="url(#SvgjsMarker1199)"></path></g><g id="SvgjsG1201"><path id="SvgjsPath1202" d="M1046 389.49999237060547L1085 389.49999237060547L1085 389.49999237060547L1124 389.49999237060547" stroke="#323232" stroke-width="2" fill="none" marker-end="url(#SvgjsMarker1203)"></path></g><g id="SvgjsG1205"><path id="SvgjsPath1206" d="M1124 264.20705119413486L1085 264.20705119413486L1085 264.20705119413486L1046 264.20705119413486" stroke-dasharray="3,3" stroke="#323232" stroke-width="2" fill="none" marker-end="url(#SvgjsMarker1207)"></path></g><g id="SvgjsG1209" transform="translate(230,654.9999923706055)"><path id="SvgjsPath1210" d="M 0 0L 120 0L 120 40L 0 40Z" stroke="none" fill="none"></path><g id="SvgjsG1211"><text id="SvgjsText1212" font-family="微软雅黑" text-anchor="middle" font-size="15px" width="120px" fill="#323232" font-weight="400" align="middle" anchor="middle" family="微软雅黑" size="15px" weight="400" font-style="" opacity="1" y="8.75" transform="rotate(0)"><tspan id="SvgjsTspan1213" dy="18" x="60"><tspan id="SvgjsTspan1214" style="text-decoration:;">View</tspan></tspan></text></g></g><g id="SvgjsG1215" transform="translate(555,654.9999923706055)"><path id="SvgjsPath1216" d="M 0 0L 120 0L 120 40L 0 40Z" stroke="none" fill="none"></path><g id="SvgjsG1217"><text id="SvgjsText1218" font-family="微软雅黑" text-anchor="middle" font-size="15px" width="120px" fill="#323232" font-weight="400" align="middle" anchor="middle" family="微软雅黑" size="15px" weight="400" font-style="" opacity="1" y="8.75" transform="rotate(0)"><tspan id="SvgjsTspan1219" dy="18" x="60"><tspan id="SvgjsTspan1220" style="text-decoration:;">Control</tspan></tspan></text></g></g><g id="SvgjsG1221" transform="translate(1028.5,654.9999923706055)"><path id="SvgjsPath1222" d="M 0 0L 120 0L 120 40L 0 40Z" stroke="none" fill="none"></path><g id="SvgjsG1223"><text id="SvgjsText1224" font-family="微软雅黑" text-anchor="middle" font-size="15px" width="120px" fill="#323232" font-weight="400" align="middle" anchor="middle" family="微软雅黑" size="15px" weight="400" font-style="" opacity="1" y="8.75" transform="rotate(0)"><tspan id="SvgjsTspan1225" dy="18" x="60"><tspan id="SvgjsTspan1226" style="text-decoration:;">Model</tspan></tspan></text></g></g></svg>